<svg width="33" height="34" viewBox="0 0 33 34" fill="none" xmlns="http://www.w3.org/2000/svg">
<path d="M16.4564 31.8349C24.4718 31.8349 30.9696 25.1705 30.9696 16.9495C30.9696 8.72861 24.4718 2.06422 16.4564 2.06422C8.44101 2.06422 1.94324 8.72861 1.94324 16.9495C1.94324 25.1705 8.44101 31.8349 16.4564 31.8349Z" fill="url(#paint0_linear)"/>
<path fill-rule="evenodd" clip-rule="evenodd" d="M13.6981 23.7256C14.4979 24.621 15.6606 25.0688 17.1859 25.0688C18.6554 25.0688 19.7807 24.6409 20.5621 23.7853C21.1594 23.1159 21.5284 22.1904 21.669 21.0092H18.4459C18.3863 21.1809 18.3104 21.3302 18.2182 21.457C17.9765 21.7953 17.623 21.9644 17.1579 21.9644C16.693 21.9644 16.3395 21.7654 16.0977 21.3674C15.8559 20.9495 15.735 20.2928 15.735 19.3972V14.5019C15.735 13.6063 15.8559 12.9596 16.0977 12.5616C16.3395 12.1437 16.7022 11.9347 17.1859 11.9347C17.6323 11.9347 17.9765 12.1138 18.2182 12.472C18.3088 12.5896 18.3837 12.7289 18.4428 12.8899H21.6764C21.5417 11.7053 21.1702 10.7799 20.5621 10.1138C19.7807 9.25813 18.6554 8.83028 17.1859 8.83028C15.6606 8.83028 14.4979 9.27803 13.6981 10.1735C12.8982 11.069 12.4983 12.5218 12.4983 14.5316V19.3675C12.4983 21.3774 12.8982 22.8301 13.6981 23.7256Z" fill="white"/>
<path d="M20.4146 14.2431H11.1789V16.2729H20.4146V14.2431Z" fill="white"/>
<path d="M19.0952 17.6261H11.1789V19.656H19.0952V17.6261Z" fill="white"/>
<defs>
<linearGradient id="paint0_linear" x1="4.582" y1="4.77065" x2="27.6125" y2="28.5462" gradientUnits="userSpaceOnUse">
<stop stop-color="#1442A2"/>
<stop offset="1" stop-color="#4674D4"/>
</linearGradient>
</defs>
</svg>
