<svg width="33" height="33" viewBox="0 0 33 33" fill="none" xmlns="http://www.w3.org/2000/svg">
<path d="M16.6445 31.3716C24.6599 31.3716 31.1577 24.7072 31.1577 16.4862C31.1577 8.26531 24.6599 1.60092 16.6445 1.60092C8.62912 1.60092 2.13135 8.26531 2.13135 16.4862C2.13135 24.7072 8.62912 31.3716 16.6445 31.3716Z" fill="url(#paint0_linear)"/>
<path fill-rule="evenodd" clip-rule="evenodd" d="M10.9189 10.3806H8.99585V11.7301H10.9189V12.8201H8.99585V14.1697H10.9189V23.2012H12.2347V14.1697H14.1577V12.8201H12.2347V11.7301H14.1577V10.3806H12.2347H10.9189ZM15.5419 10.4325H21.8612L21.0024 12.8336H21.8501V18.7891H14.9676V17.4396H20.5343V16.5053H14.9676V15.1558H20.5343V14.1831H14.9676V12.8336H19.6011L19.9771 11.782H16.4792L16.2474 12.4697L15.0035 12.0285L15.5419 10.4325ZM16.2792 21.8141H18.7124V19.4639H20.0282V23.1637H14.9635V19.481H16.2792V21.8141ZM18.1557 19.4639H16.84V20.9172H18.1557V19.4639ZM20.5343 19.4639H21.8501V23.201H20.5343V19.4639ZM10.3116 15.1559H8.99585V23.2012H10.3116V15.1559ZM12.842 15.1559H14.1577V23.2012H12.842V15.1559ZM26.0607 10.4492H23.4662V11.9226H24.3022V11.3066H25.2247V11.7561L23.4662 13.7275V14.8562H26.0174V13.9988H24.3573L26.0607 12.0892V10.4492Z" fill="white"/>
<defs>
<linearGradient id="paint0_linear" x1="2.13135" y1="-1.31777" x2="34.072" y2="1.83351" gradientUnits="userSpaceOnUse">
<stop stop-color="#41A558"/>
<stop offset="1" stop-color="#44A69B"/>
</linearGradient>
</defs>
</svg>
