<svg width="92" height="40" viewBox="0 0 92 40" fill="none" xmlns="http://www.w3.org/2000/svg">
<path d="M37.3333 20C37.3333 29.573 29.5729 37.3334 20 37.3334C10.4271 37.3334 2.66667 29.573 2.66667 20C2.66667 10.4271 10.4271 2.66669 20 2.66669C29.5729 2.66669 37.3333 10.4271 37.3333 20Z" fill="url(#paint0_linear)" stroke="white" stroke-width="2"/>
<path fill-rule="evenodd" clip-rule="evenodd" d="M16.5156 28.3457C17.526 29.4485 18.9947 30 20.9215 30C22.7778 30 24.1993 29.473 25.1863 28.4192C25.9408 27.5947 26.407 26.4548 26.5847 25H22.5132C22.4378 25.2115 22.342 25.3953 22.2255 25.5515C21.9202 25.9682 21.4737 26.1765 20.8862 26.1765C20.2988 26.1765 19.8523 25.9313 19.5468 25.4412C19.2413 24.9265 19.0887 24.1177 19.0887 23.0147V16.9853C19.0887 15.8824 19.2413 15.0858 19.5468 14.5956C19.8523 14.0809 20.3105 13.8235 20.9215 13.8235C21.4853 13.8235 21.9202 14.0441 22.2255 14.4853C22.34 14.6302 22.4345 14.8017 22.5092 15H26.594C26.4238 13.541 25.9545 12.4013 25.1863 11.5809C24.1993 10.527 22.7778 10 20.9215 10C18.9947 10 17.526 10.5515 16.5156 11.6544C15.5052 12.7573 15 14.5466 15 17.022V22.978C15 25.4535 15.5052 27.2427 16.5156 28.3457Z" fill="white"/>
<path d="M25 16.6667H13.3333V19.1667H25V16.6667Z" fill="white"/>
<path d="M23.3333 20.8333H13.3333V23.3333H23.3333V20.8333Z" fill="white"/>
<path d="M62.3333 20C62.3333 29.573 54.5729 37.3334 45 37.3334C35.4271 37.3334 27.6667 29.573 27.6667 20C27.6667 10.4271 35.4271 2.66669 45 2.66669C54.5729 2.66669 62.3333 10.4271 62.3333 20Z" fill="url(#paint1_linear)" stroke="white" stroke-width="2"/>
<path fill-rule="evenodd" clip-rule="evenodd" d="M52.906 21.2053H37.5215V17.8207H52.906V21.2053Z" fill="white"/>
<path fill-rule="evenodd" clip-rule="evenodd" d="M43.5215 31.6669V16.2822H46.9062V31.6669H43.5215Z" fill="white"/>
<path fill-rule="evenodd" clip-rule="evenodd" d="M36.6667 11.6667L45.2138 20.2139L53.7608 11.6667H48.9743L45.2138 15.4272L41.4532 11.6667H36.6667Z" fill="white"/>
<path d="M89.3333 20C89.3333 29.573 81.5729 37.3334 72 37.3334C62.4271 37.3334 54.6667 29.573 54.6667 20C54.6667 10.4271 62.4271 2.66669 72 2.66669C81.5729 2.66669 89.3333 10.4271 89.3333 20Z" fill="url(#paint2_linear)" stroke="white" stroke-width="2"/>
<path fill-rule="evenodd" clip-rule="evenodd" d="M70.3333 6.66669H73.6667V10.1582C74.8303 10.3861 75.8205 10.8603 76.6368 11.5809C77.8308 12.6348 78.4278 14.0074 78.4278 15.6986V16.0662H73.9702V15.8456C73.9702 15.0858 73.7843 14.5098 73.413 14.1177C73.0415 13.7255 72.5373 13.5294 71.9005 13.5294C71.2902 13.5294 70.7993 13.6887 70.4278 14.0074C70.083 14.326 69.9105 14.7794 69.9105 15.3677C69.9105 15.8824 70.0432 16.3113 70.3085 16.6544C70.5738 16.9975 71.078 17.3162 71.8208 17.6104L74.408 18.6397C75.9203 19.2525 77.0083 20 77.6717 20.8824C78.335 21.7402 78.6667 22.8677 78.6667 24.2647C78.6667 25.9559 78.0563 27.3407 76.8358 28.4192C75.9917 29.1642 74.9353 29.646 73.6667 29.8644V33.3334H70.3333V29.874C69.047 29.664 67.9774 29.1914 67.1244 28.4559C65.9304 27.402 65.3333 25.9559 65.3333 24.1177V23.897H69.791V24.1177C69.791 24.853 69.99 25.429 70.388 25.8457C70.786 26.2377 71.3433 26.4339 72.0597 26.4339C72.7497 26.4339 73.267 26.2624 73.612 25.9192C73.9833 25.5515 74.1692 25.0245 74.1692 24.3382C74.1692 23.8235 73.9967 23.3824 73.6517 23.0147C73.3333 22.6225 72.816 22.2794 72.0995 21.9854L69.7115 21.0294C68.0929 20.3922 66.9784 19.6447 66.3682 18.7869C65.7579 17.929 65.4527 16.8505 65.4527 15.5515C65.4527 13.9584 66.0498 12.6348 67.2438 11.5809C68.088 10.8358 69.1178 10.3541 70.3333 10.1357V6.66669Z" fill="white"/>
<defs>
<linearGradient id="paint0_linear" x1="5" y1="5.00002" x2="33.3333" y2="35" gradientUnits="userSpaceOnUse">
<stop stop-color="#1442A2"/>
<stop offset="1" stop-color="#4674D4"/>
</linearGradient>
<linearGradient id="paint1_linear" x1="30" y1="5.00002" x2="58.3333" y2="35" gradientUnits="userSpaceOnUse">
<stop stop-color="#1442A2"/>
<stop offset="1" stop-color="#4674D4"/>
</linearGradient>
<linearGradient id="paint2_linear" x1="57" y1="5.00002" x2="85.3333" y2="35" gradientUnits="userSpaceOnUse">
<stop stop-color="#1442A2"/>
<stop offset="1" stop-color="#4674D4"/>
</linearGradient>
</defs>
</svg>
