<svg width="33" height="33" viewBox="0 0 33 33" fill="none" xmlns="http://www.w3.org/2000/svg">
<path d="M16.2385 31.2752C24.4595 31.2752 31.1239 24.6108 31.1239 16.3899C31.1239 8.16898 24.4595 1.50459 16.2385 1.50459C8.0176 1.50459 1.35321 8.16898 1.35321 16.3899C1.35321 24.6108 8.0176 31.2752 16.2385 31.2752Z" fill="url(#paint0_linear)"/>
<path fill-rule="evenodd" clip-rule="evenodd" d="M14.8853 5.56422H17.5917V8.39904C18.5366 8.58408 19.3405 8.96913 20.0033 9.55421C20.9727 10.4099 21.4575 11.5243 21.4575 12.8974V13.1959H17.8382V13.0168C17.8382 12.3999 17.6873 11.9323 17.3858 11.6139C17.0842 11.2955 16.6748 11.1363 16.1577 11.1363C15.6622 11.1363 15.2637 11.2656 14.962 11.5243C14.6821 11.783 14.542 12.1512 14.542 12.6288C14.542 13.0467 14.6497 13.3949 14.8652 13.6735C15.0806 13.9521 15.4899 14.2108 16.0931 14.4497L18.1936 15.2854C19.4216 15.783 20.3049 16.3899 20.8435 17.1063C21.3821 17.8028 21.6514 18.7182 21.6514 19.8525C21.6514 21.2256 21.1558 22.35 20.1649 23.2257C19.4795 23.8305 18.6218 24.2218 17.5917 24.399V27.2156H14.8853V24.4069C13.8409 24.2364 12.9724 23.8526 12.2799 23.2554C11.3104 22.3998 10.8257 21.2256 10.8257 19.7332V19.554H14.445V19.7332C14.445 20.3302 14.6066 20.7979 14.9297 21.1362C15.2528 21.4544 15.7054 21.6137 16.287 21.6137C16.8472 21.6137 17.2672 21.4745 17.5474 21.1958C17.8489 20.8973 17.9997 20.4694 17.9997 19.9122C17.9997 19.4943 17.8597 19.1361 17.5796 18.8376C17.3211 18.5192 16.9011 18.2406 16.3193 18.0019L14.3804 17.2257C13.0662 16.7083 12.1614 16.1014 11.6659 15.4049C11.1704 14.7084 10.9226 13.8327 10.9226 12.778C10.9226 11.4845 11.4074 10.4099 12.3768 9.55421C13.0622 8.94923 13.8984 8.55811 14.8853 8.38084V5.56422Z" fill="white"/>
<defs>
<linearGradient id="paint0_linear" x1="4.05963" y1="4.21101" x2="27.0642" y2="28.5688" gradientUnits="userSpaceOnUse">
<stop stop-color="#1442A2"/>
<stop offset="1" stop-color="#4674D4"/>
</linearGradient>
</defs>
</svg>
