<svg width="109" height="109" viewBox="0 0 109 109" fill="none" xmlns="http://www.w3.org/2000/svg">
<path d="M86.4745 25.9698L83.731 28.7133C90.2775 35.8724 93.9079 45.2223 93.9079 54.9233C93.9079 64.6244 90.2775 73.9742 83.731 81.1334L86.4745 83.8769C93.755 75.9799 97.797 65.6323 97.797 54.8913C97.797 44.1504 93.755 33.8028 86.4745 25.9058V25.9698Z" fill="#C4C4C4"/>
<path d="M28.7773 26.2076C35.9364 19.6611 45.2863 16.0307 54.9873 16.0307C64.6883 16.0307 74.0382 19.6611 81.1973 26.2076L83.9409 23.4641C76.0439 16.1836 65.6962 12.1416 54.9553 12.1416C44.2144 12.1416 33.8667 16.1836 25.9697 23.4641L28.7773 26.2076Z" fill="#C4C4C4"/>
<path d="M26.2077 81.1606C19.6689 74.003 16.0432 64.6589 16.0432 54.9643C16.0432 45.2696 19.6689 35.9255 26.2077 28.768L23.4641 26.0244C16.1836 33.9214 12.1416 44.269 12.1416 55.01C12.1416 65.7509 16.1836 76.0985 23.4641 83.9956L26.2077 81.1606Z" fill="#C4C4C4"/>
<path d="M81.1606 83.6943C74.0015 90.2409 64.6517 93.8713 54.9506 93.8713C45.2496 93.8713 35.8997 90.2409 28.7406 83.6943L25.9971 86.4379C33.8941 93.7184 44.2417 97.7604 54.9826 97.7604C65.7236 97.7604 76.0712 93.7184 83.9682 86.4379L81.1606 83.6943Z" fill="#C4C4C4"/>
<path d="M72.2811 45.8061C71.7324 40.0813 66.794 38.1608 60.5479 37.5755V29.6924H55.7192V37.4292C54.448 37.4292 53.1494 37.4292 51.86 37.4292V29.6924H47.0679V37.6304H37.2734V42.7974C37.2734 42.7974 40.84 42.7334 40.7852 42.7974C41.4283 42.7266 42.0737 42.9083 42.5855 43.3041C43.0973 43.6999 43.4354 44.2789 43.5287 44.9191V66.648C43.515 66.8737 43.4561 67.0945 43.3556 67.2971C43.255 67.4997 43.1149 67.6801 42.9434 67.8277C42.7752 67.978 42.5783 68.0928 42.3645 68.1651C42.1508 68.2374 41.9247 68.2657 41.6997 68.2484C41.7637 68.3032 38.188 68.2484 38.188 68.2484L37.2734 74.0189H46.9765V82.085H51.8051V74.1378H55.6644V82.0484H60.5021V74.0738C68.6596 73.58 74.3479 71.568 75.0612 63.9318C75.6374 57.7863 72.7475 55.0428 68.1292 53.9362C70.9368 52.5553 72.6743 49.9946 72.2811 45.8061ZM65.5137 62.9807C65.5137 68.98 55.2345 68.2941 51.9606 68.2941V57.6491C55.2345 57.6583 65.5137 56.7163 65.5137 62.9807ZM63.2731 47.9827C63.2731 53.4698 54.695 52.8022 51.9697 52.8022V43.1266C54.695 43.1266 63.2731 42.267 63.2731 47.9827Z" fill="#F09242"/>
<path d="M54.9509 104.92C45.0705 104.918 35.4125 101.987 27.198 96.4964C18.9835 91.006 12.5815 83.2033 8.80125 74.0746C5.02103 64.946 4.03243 54.9015 5.96044 45.2111C7.88844 35.5206 12.6465 26.6194 19.633 19.633C26.6194 12.6465 35.5206 7.88844 45.2111 5.96044C54.9015 4.03243 64.946 5.02103 74.0746 8.80125C83.2033 12.5815 91.006 18.9835 96.4964 27.198C101.987 35.4125 104.918 45.0705 104.92 54.9509C104.921 61.5132 103.63 68.0116 101.119 74.0746C98.608 80.1377 94.9274 85.6468 90.2871 90.2871C85.6468 94.9274 80.1377 98.608 74.0746 101.119C68.0116 103.63 61.5132 104.921 54.9509 104.92V104.92ZM54.9509 8.89586C45.848 8.90309 36.9516 11.6088 29.3861 16.671C21.8206 21.7331 15.9257 28.9245 12.4463 37.3362C8.96699 45.7479 8.05946 55.0022 9.83844 63.9296C11.6174 72.8569 16.0031 81.0565 22.441 87.4919C28.879 93.9273 37.0803 98.3097 46.0084 100.085C54.9364 101.861 64.1904 100.949 72.6007 97.4667C81.011 93.984 88.2001 88.0862 93.2592 80.5187C98.3184 72.9512 101.021 64.0537 101.024 54.9509C101.027 48.9006 99.8364 42.9092 97.5216 37.3193C95.2068 31.7294 91.8129 26.6505 87.5339 22.3732C83.2548 18.0959 78.1747 14.704 72.5838 12.3914C66.993 10.0789 61.0011 8.89105 54.9509 8.89586V8.89586Z" fill="white"/>
</svg>
